Coordinates
version=1
nRows=17
nColumns=38
inDegrees=no

Units are S.I. units (second, meters, Newtons, ...)
If the header above contains a line with 'inDegrees', this indicates whether rotational values are in degrees (yes) or radians (no).

endheader
time	pelvis_tilt	pelvis_list	pelvis_rotation	pelvis_tx	pelvis_ty	pelvis_tz	hip_flexion_r	hip_adduction_r	hip_rotation_r	knee_angle_r	ankle_angle_r	subtalar_angle_r	mtp_angle_r	hip_flexion_l	hip_adduction_l	hip_rotation_l	knee_angle_l	ankle_angle_l	subtalar_angle_l	mtp_angle_l	lumbar_extension	lumbar_bending	lumbar_rotation	arm_flex_r	arm_add_r	arm_rot_r	elbow_flex_r	pro_sup_r	wrist_flex_r	wrist_dev_r	arm_flex_l	arm_add_l	arm_rot_l	elbow_flex_l	pro_sup_l	wrist_flex_l	wrist_dev_l
1.1	-2.37966	1.4495	0.860726	0.783718	0.400996	1.05866	0.454385	-0.0165397	-0.0852202	0.57421	-0.068487	0	0	-0.0260289	-0.0327804	-0.24883	0.172815	-0.11596	0	0	-0.217919	0.0887945	0.0659415	-0.189535	-0.425615	0.277966	0.69402	0.806104	0	0	0.148475	-0.671971	0.496061	0.73161	1.28705	0	0
1.11	-2.41825	1.44533	0.907018	0.783142	0.3892	1.05767	0.456818	-0.0167426	-0.06341	0.50064	-0.0830013	0	0	-0.0364818	-0.033311	-0.249277	0.161933	-0.120073	0	0	-0.211515	0.0861559	0.06206	-0.187436	-0.42209	0.279769	0.691012	0.807644	0	0	0.152797	-0.676408	0.488588	0.744172	1.29485	0	0
1.12	-2.43738	1.44259	0.934831	0.782701	0.377139	1.05666	0.454955	-0.0174905	-0.0599959	0.423001	-0.10295	0	0	-0.0498511	-0.0350435	-0.250562	0.151072	-0.123083	0	0	-0.207904	0.0846504	0.0574328	-0.185359	-0.418931	0.281206	0.688219	0.808883	0	0	0.157458	-0.68057	0.482272	0.756051	1.30194	0	0
1.13	-2.45431	1.44052	0.96036	0.782255	0.364971	1.05536	0.451263	-0.0193259	-0.0589981	0.344906	-0.128145	0	0	-0.0634854	-0.0365671	-0.251627	0.141362	-0.124909	0	0	-0.205268	0.0829544	0.0530071	-0.183523	-0.416279	0.282476	0.686006	0.810478	0	0	0.16258	-0.68476	0.477426	0.767295	1.30787	0	0
1.14	-2.49273	1.43787	1.0069	0.781716	0.352733	1.05335	0.450084	-0.0249853	-0.0478118	0.270879	-0.156164	0	0	-0.0743391	-0.0358498	-0.251859	0.133408	-0.124954	0	0	-0.199917	0.0786773	0.0484691	-0.182871	-0.413249	0.282956	0.6844	0.812491	0	0	0.16722	-0.690184	0.474522	0.778678	1.31271	0	0
1.15	-2.53047	1.43587	1.05355	0.781165	0.340311	1.05104	0.449325	-0.0318916	-0.0433831	0.202946	-0.18362	0	0	-0.0856227	-0.0349687	-0.251518	0.126721	-0.123877	0	0	-0.195093	0.0735903	0.0430354	-0.18286	-0.409974	0.283084	0.683505	0.814293	0	0	0.171918	-0.696537	0.473079	0.790034	1.31628	0	0
1.16	-2.56636	1.43488	1.09921	0.780646	0.327733	1.04853	0.446801	-0.0393858	-0.0430565	0.138959	-0.206946	0	0	-0.0976822	-0.033944	-0.250793	0.121146	-0.122977	0	0	-0.191461	0.0679562	0.0366715	-0.18307	-0.406727	0.283188	0.683262	0.816068	0	0	0.177203	-0.703567	0.473756	0.800881	1.31832	0	0
1.17	-2.6068	1.43421	1.14787	0.78004	0.314915	1.04575	0.444554	-0.0467692	-0.0428151	0.0801601	-0.223904	0	0	-0.109859	-0.0321831	-0.252855	0.116665	-0.122057	0	0	-0.187699	0.0613408	0.0316482	-0.183986	-0.403891	0.283276	0.683673	0.818095	0	0	0.182797	-0.710601	0.476681	0.810458	1.31948	0	0
1.18	-2.64665	1.43419	1.19484	0.779401	0.301955	1.04277	0.442824	-0.0535035	-0.0459318	0.0286014	-0.233133	0	0	-0.122644	-0.03024	-0.256233	0.113837	-0.119578	0	0	-0.185079	0.0545296	0.0278789	-0.185596	-0.401601	0.282457	0.685384	0.81999	0	0	0.189273	-0.717479	0.481746	0.819077	1.32011	0	0
1.19	-2.68821	1.43323	1.24459	0.778803	0.288717	1.03958	0.444504	-0.0601076	-0.0578445	0	-0.233318	0	0	-0.133626	-0.0287952	-0.257654	0.113436	-0.116937	0	0	-0.180994	0.0478194	0.0233811	-0.187713	-0.398813	0.281785	0.68618	0.820844	0	0	0.195779	-0.723757	0.487637	0.826001	1.3215	0	0
1.2	-2.73091	1.43084	1.29749	0.778233	0.275241	1.03624	0.450525	-0.0669671	-0.0821931	0	-0.224705	0	0	-0.141656	-0.0281386	-0.254813	0.116628	-0.109896	0	0	-0.174542	0.0407292	0.016034	-0.188377	-0.394063	0.282352	0.683209	0.822728	0	0	0.201939	-0.732278	0.498322	0.832251	1.32248	0	0
1.21	-2.76156	1.42949	1.33643	0.777404	0.261588	1.03303	0.454338	-0.0709625	-0.106006	0	-0.211812	0	0	-0.150407	-0.0291632	-0.254418	0.122752	-0.104052	0	0	-0.170417	0.0346188	0.0112334	-0.189049	-0.390201	0.283904	0.681338	0.823701	0	0	0.208536	-0.739446	0.50766	0.837365	1.32416	0	0
1.22	-2.781	1.4298	1.36292	0.776356	0.247812	1.03009	0.455294	-0.0724308	-0.128272	0	-0.199693	0	0	-0.15995	-0.0318124	-0.255221	0.131921	-0.0984964	0	0	-0.169511	0.0294914	0.00825757	-0.189024	-0.386668	0.28603	0.679886	0.823377	0	0	0.215911	-0.746018	0.516724	0.841914	1.32723	0	0
1.23	-2.79604	1.43066	1.38411	0.77516	0.233893	1.02736	0.454316	-0.072314	-0.146628	0	-0.189719	0	0	-0.168766	-0.0354668	-0.256295	0.144208	-0.0930104	0	0	-0.169907	0.0247701	0.00636001	-0.188104	-0.383044	0.289306	0.677712	0.821704	0	0	0.223463	-0.752025	0.525903	0.845362	1.33114	0	0
1.24	-2.80283	1.43221	1.39576	0.77386	0.219809	1.02495	0.45098	-0.0700433	-0.158767	0	-0.183378	0	0	-0.177117	-0.0404765	-0.258575	0.159636	-0.0883581	0	0	-0.171768	0.0212799	0.00575205	-0.186277	-0.379912	0.294132	0.675215	0.819134	0	0	0.230443	-0.756764	0.533929	0.847304	1.33627	0	0
1.25	-2.79893	1.43477	1.3958	0.772532	0.205541	1.02295	0.445498	-0.0657822	-0.164237	0	-0.183213	0	0	-0.185574	-0.0470819	-0.261324	0.177547	-0.0867983	0	0	-0.1755	0.0195786	0.00593958	-0.183695	-0.377151	0.299327	0.67273	0.816266	0	0	0.235699	-0.759442	0.537906	0.84795	1.34232	0	0
1.26	-2.78639	1.43685	1.38627	0.771171	0.190961	1.02119	0.439938	-0.0596305	-0.163207	0	-0.185898	0	0	-0.192665	-0.0548612	-0.263619	0.197389	-0.087221	0	0	-0.178487	0.0197615	0.006766	-0.181876	-0.374137	0.302482	0.670523	0.815306	0	0	0.238076	-0.760196	0.538849	0.846984	1.34535	0	0
